<svg width="1104" height="1104" viewBox="0 0 1104 1104" fill="none" xmlns="http://www.w3.org/2000/svg">
<path d="M40 296C40 154.615 154.615 40 296 40H808C949.385 40 1064 154.615 1064 296V808C1064 949.385 949.385 1064 808 1064H296C154.615 1064 40 949.385 40 808V296Z" fill="white"/>
<path d="M296 40V41H808V40V39H296V40ZM1064 296H1063V808H1064H1065V296H1064ZM808 1064V1063H296V1064V1065H808V1064ZM40 808H41V296H40H39V808H40ZM296 1064V1063C155.167 1063 41 948.833 41 808H40H39C39 949.937 154.063 1065 296 1065V1064ZM1064 808H1063C1063 948.833 948.833 1063 808 1063V1064V1065C949.937 1065 1065 949.937 1065 808H1064ZM808 40V41C948.833 41 1063 155.167 1063 296H1064H1065C1065 154.063 949.937 39 808 39V40ZM296 40V39C154.063 39 39 154.063 39 296H40H41C41 155.167 155.167 41 296 41V40Z" fill="white"/>
<path fill-rule="evenodd" clip-rule="evenodd" d="M479 389.005H459.5L623.5 716.005H644L685.5 635.505L723 716.005H758L903 389.005H791L694.5 581.505L703 601.505L801.214 406.005H877L748 699.005H733.5L623 458.505L614 477.505L676.5 616.005L634 699.005L560.5 553.005L643 389.005H624L605.5 427.005C605.5 427.005 584.5 387.505 550.5 388.005C516.5 388.505 498 427.505 498 427.505L479 389.005ZM551.5 534.005L507 444.005C507 444.005 526.5 405.505 551.5 405.505C576.5 405.505 596 444.005 596 444.005L551.5 534.005Z" fill="black"/>
<path d="M479 716.005L551.5 572.444L542.17 553.84L469 698.505L426.5 616.005L489.5 477.505L480 459.005L370 699.005H355L225.757 406.005H302L400 600.005L409 581.005L311.802 389.005H200L345 716.005H380L418 636.005L459.5 716.005H479Z" fill="black"/>
<path fill-rule="evenodd" clip-rule="evenodd" d="M479 389.005H459.5L623.5 716.005H644L685.5 635.505L723 716.005H758L903 389.005H791L694.5 581.505L703 601.505L801.214 406.005H877L748 699.005H733.5L623 458.505L614 477.505L676.5 616.005L634 699.005L560.5 553.005L643 389.005H624L605.5 427.005C605.5 427.005 584.5 387.505 550.5 388.005C516.5 388.505 498 427.505 498 427.505L479 389.005ZM551.5 534.005L507 444.005C507 444.005 526.5 405.505 551.5 405.505C576.5 405.505 596 444.005 596 444.005L551.5 534.005Z" stroke="black"/>
<path d="M479 716.005L551.5 572.444L542.17 553.84L469 698.505L426.5 616.005L489.5 477.505L480 459.005L370 699.005H355L225.757 406.005H302L400 600.005L409 581.005L311.802 389.005H200L345 716.005H380L418 636.005L459.5 716.005H479Z" stroke="black"/>
</svg>
